<?xml version="1.0" encoding="UTF-8" standalone="no"?>
<!-- Created with Inkscape (http://www.inkscape.org/) -->

<svg
   width="16"
   height="16"
   viewBox="0 0 4.2333333 4.2333333"
   version="1.1"
   id="svg1"
   xml:space="preserve"
   sodipodi:docname="icons.svg"
   inkscape:version="1.4 (86a8ad7, 2024-10-11)"
   inkscape:export-batch-path="D:\Users\ricau\source\repos\RevitAddin.VisualStudioDebug\assets"
   inkscape:export-batch-name=""
   xmlns:inkscape="http://www.inkscape.org/namespaces/inkscape"
   xmlns:sodipodi="http://sodipodi.sourceforge.net/DTD/sodipodi-0.dtd"
   xmlns="http://www.w3.org/2000/svg"
   xmlns:svg="http://www.w3.org/2000/svg"><sodipodi:namedview
     id="namedview1"
     pagecolor="#bebebe"
     bordercolor="#eeeeee"
     borderopacity="1"
     inkscape:showpageshadow="0"
     inkscape:pageopacity="0"
     inkscape:pagecheckerboard="0"
     inkscape:deskcolor="#4a4a4a"
     inkscape:document-units="px"
     showgrid="true"
     inkscape:zoom="8"
     inkscape:cx="14.0625"
     inkscape:cy="37.5"
     inkscape:window-width="1920"
     inkscape:window-height="1058"
     inkscape:window-x="1913"
     inkscape:window-y="-6"
     inkscape:window-maximized="1"
     inkscape:current-layer="layer1"><inkscape:grid
       id="grid2"
       units="px"
       originx="0"
       originy="0"
       spacingx="2.1166666"
       spacingy="2.1166666"
       empcolor="#3f3fff"
       empopacity="0.25098039"
       color="#3f3fff"
       opacity="0.1254902"
       empspacing="5"
       dotted="false"
       gridanglex="30"
       gridanglez="30"
       visible="true" /></sodipodi:namedview><defs
     id="defs1" /><g
     inkscape:label="Layer 1"
     inkscape:groupmode="layer"
     id="layer1"><g
       id="Pause-Dark32"
       inkscape:label="Pause-Dark"
       transform="matrix(0.26458333,0,0,0.26458333,-49.2125,43.656249)"><rect
         y="-149"
         x="202"
         height="16"
         width="16"
         id="rect877-4-4-1-0"
         style="opacity:1;fill:none;fill-opacity:0.7;stroke:none;stroke-width:50;stroke-linecap:round;stroke-linejoin:round;stroke-miterlimit:4;stroke-dasharray:none;stroke-opacity:1;paint-order:stroke fill markers" /><path
         id="path2043"
         d="m 216,-148 h -12 c -0.55228,0 -1,0.44772 -1,1 v 12 c 0,0.5523 0.44772,1 1,1 h 12 c 0.5523,0 1,-0.4477 1,-1 v -12 c 0,-0.55228 -0.4477,-1 -1,-1 z"
         inkscape:connector-curvature="0"
         style="fill:#ffd580" /><g
         transform="translate(202,-149)"
         id="g2049"
         style="opacity:0.5;fill:none"><path
           id="path2045"
           d="m 4,4 h 3 v 8 H 4 Z"
           inkscape:connector-curvature="0"
           style="fill:#000000" /><path
           id="path2047"
           d="m 9,4 h 3 v 8 H 9 Z"
           inkscape:connector-curvature="0"
           style="fill:#000000" /></g></g><g
       id="Pause-Light32"
       inkscape:label="Pause-Light"
       transform="matrix(0.26458333,0,0,0.26458333,-36.5125,43.656249)"><rect
         y="-149"
         x="138"
         height="16"
         width="16"
         id="rect877-4-4-1-9"
         style="opacity:1;fill:none;fill-opacity:0.7;stroke:none;stroke-width:50;stroke-linecap:round;stroke-linejoin:round;stroke-miterlimit:4;stroke-dasharray:none;stroke-opacity:1;paint-order:stroke fill markers" /><path
         id="path2065"
         d="m 152,-148 h -12 c -0.55228,0 -1,0.44772 -1,1 v 12 c 0,0.5523 0.44772,1 1,1 h 12 c 0.5523,0 1,-0.4477 1,-1 v -12 c 0,-0.55228 -0.4477,-1 -1,-1 z"
         inkscape:connector-curvature="0"
         style="fill:#ffaa00" /><g
         transform="translate(138,-149)"
         id="g2071"
         style="opacity:0.5;fill:none"><path
           id="path2067"
           d="m 4,4 h 3 v 8 H 4 Z"
           inkscape:connector-curvature="0"
           style="fill:#000000" /><path
           id="path2069"
           d="m 9,4 h 3 v 8 H 9 Z"
           inkscape:connector-curvature="0"
           style="fill:#000000" /></g><path
         id="path2073"
         d="m 152,-147 v 12 h -12 v -12 z m 0,-1 h -12 c -0.26522,0 -0.51957,0.10536 -0.70711,0.29289 C 139.10536,-147.51957 139,-147.26522 139,-147 v 12 c 0,0.2652 0.10536,0.5196 0.29289,0.7071 0.18754,0.1875 0.44189,0.2929 0.70711,0.2929 h 12 c 0.2652,0 0.5196,-0.1054 0.7071,-0.2929 C 152.8946,-134.4804 153,-134.7348 153,-135 v -12 c 0,-0.26522 -0.1054,-0.51957 -0.2929,-0.70711 C 152.5196,-147.89464 152.2652,-148 152,-148 Z"
         inkscape:connector-curvature="0"
         style="fill:#000000;fill-opacity:0.1" /></g><g
       id="Play-Dark32"
       inkscape:label="Play-Dark"
       transform="matrix(0.26458333,0,0,0.26458333,-49.2125,43.656249)"><rect
         y="-165"
         x="202"
         height="16"
         width="16"
         id="rect877-4-4-1-4"
         style="opacity:1;fill:none;fill-opacity:0.7;stroke:none;stroke-width:50;stroke-linecap:round;stroke-linejoin:round;stroke-miterlimit:4;stroke-dasharray:none;stroke-opacity:1;paint-order:stroke fill markers" /><path
         id="path2090"
         d="m 216,-164 h -12 c -0.55228,0 -1,0.44772 -1,1 v 12 c 0,0.5523 0.44772,1 1,1 h 12 c 0.5523,0 1,-0.4477 1,-1 v -12 c 0,-0.55228 -0.4477,-1 -1,-1 z"
         inkscape:connector-curvature="0"
         style="fill:#62d987" /><path
         id="path2092"
         d="m 214,-157 -7,4 v -8 z"
         inkscape:connector-curvature="0"
         style="opacity:0.5;fill:#000000" /></g><g
       id="Play-Light32"
       inkscape:label="Play-Light"
       transform="matrix(0.26458333,0,0,0.26458333,-36.5125,43.656249)"><rect
         y="-165"
         x="138"
         height="16"
         width="16"
         id="rect877-4-4-1"
         style="opacity:1;fill:none;fill-opacity:0.7;stroke:none;stroke-width:50;stroke-linecap:round;stroke-linejoin:round;stroke-miterlimit:4;stroke-dasharray:none;stroke-opacity:1;paint-order:stroke fill markers" /><path
         id="path2106"
         d="m 152,-164 h -12 c -0.55228,0 -1,0.44772 -1,1 v 12 c 0,0.5523 0.44772,1 1,1 h 12 c 0.5523,0 1,-0.4477 1,-1 v -12 c 0,-0.55228 -0.4477,-1 -1,-1 z"
         inkscape:connector-curvature="0"
         style="fill:#24b353" /><path
         id="path2108"
         d="m 152,-163 v 12 h -12 v -12 z m 0,-1 h -12 c -0.26522,0 -0.51957,0.10536 -0.70711,0.29289 C 139.10536,-163.51957 139,-163.26522 139,-163 v 12 c 0,0.2652 0.10536,0.5196 0.29289,0.7071 0.18754,0.1875 0.44189,0.2929 0.70711,0.2929 h 12 c 0.2652,0 0.5196,-0.1054 0.7071,-0.2929 C 152.8946,-150.4804 153,-150.7348 153,-151 v -12 c 0,-0.26522 -0.1054,-0.51957 -0.2929,-0.70711 C 152.5196,-163.89464 152.2652,-164 152,-164 Z"
         inkscape:connector-curvature="0"
         style="fill:#000000;fill-opacity:0.1" /><path
         id="path2110"
         d="m 150,-157 -7,4 v -8 z"
         inkscape:connector-curvature="0"
         style="opacity:0.5;fill:#000000" /></g><g
       id="Stop-Dark32"
       inkscape:label="Stop-Dark"
       transform="matrix(0.26458333,0,0,0.26458333,-49.2125,43.656249)"><rect
         y="-133"
         x="202"
         height="16"
         width="16"
         id="rect877-4-4-1-3"
         style="opacity:1;fill:none;fill-opacity:0.7;stroke:none;stroke-width:50;stroke-linecap:round;stroke-linejoin:round;stroke-miterlimit:4;stroke-dasharray:none;stroke-opacity:1;paint-order:stroke fill markers" /><path
         id="path2154"
         d="m 216,-132 h -12 c -0.55228,0 -1,0.44772 -1,1 v 12 c 0,0.5523 0.44772,1 1,1 h 12 c 0.5523,0 1,-0.4477 1,-1 v -12 c 0,-0.55228 -0.4477,-1 -1,-1 z"
         inkscape:connector-curvature="0"
         style="fill:#ff6666" /><path
         id="path2156"
         d="m 213,-128 h -6 v 6 h 6 z"
         inkscape:connector-curvature="0"
         style="opacity:0.5;fill:#000000" /></g><g
       id="Stop-Light32"
       inkscape:label="Stop-Light"
       transform="matrix(0.26458333,0,0,0.26458333,-36.5125,43.656249)"><rect
         y="-133"
         x="138"
         height="16"
         width="16"
         id="rect877-4-4-1-5"
         style="opacity:1;fill:none;fill-opacity:0.7;stroke:none;stroke-width:50;stroke-linecap:round;stroke-linejoin:round;stroke-miterlimit:4;stroke-dasharray:none;stroke-opacity:1;paint-order:stroke fill markers" /><path
         id="path2170"
         d="m 152,-132 h -12 c -0.55228,0 -1,0.44772 -1,1 v 12 c 0,0.5523 0.44772,1 1,1 h 12 c 0.5523,0 1,-0.4477 1,-1 v -12 c 0,-0.55228 -0.4477,-1 -1,-1 z"
         inkscape:connector-curvature="0"
         style="fill:#ff3333" /><path
         id="path2172"
         d="m 149,-128 h -6 v 6 h 6 z"
         inkscape:connector-curvature="0"
         style="opacity:0.5;fill:#000000" /><path
         id="path2174"
         d="m 152,-131 v 12 h -12 v -12 z m 0,-1 h -12 c -0.26522,0 -0.51957,0.10536 -0.70711,0.29289 C 139.10536,-131.51957 139,-131.26522 139,-131 v 12 c 0,0.2652 0.10536,0.5196 0.29289,0.7071 0.18754,0.1875 0.44189,0.2929 0.70711,0.2929 h 12 c 0.2652,0 0.5196,-0.1054 0.7071,-0.2929 C 152.8946,-118.4804 153,-118.7348 153,-119 v -12 c 0,-0.26522 -0.1054,-0.51957 -0.2929,-0.70711 C 152.5196,-131.89464 152.2652,-132 152,-132 Z"
         inkscape:connector-curvature="0"
         style="fill:#000000;fill-opacity:0.1" /></g><g
       id="Event-Light32"
       inkscape:label="Event-Light"
       transform="matrix(0.26458333,0,0,0.26458333,-36.5125,60.589582)"><path
         id="path2170-0"
         d="m 152,-180 h -12 c -0.55228,0 -1,0.44772 -1,1 v 12 c 0,0.5523 0.44772,1 1,1 h 12 c 0.5523,0 1,-0.4477 1,-1 v -12 c 0,-0.55228 -0.4477,-1 -1,-1 z"
         inkscape:connector-curvature="0"
         style="fill:#178fe6;fill-opacity:1" /><path
         id="path2174-8"
         d="m 152,-179 v 12 h -12 v -12 z m 0,-1 h -12 c -0.26522,0 -0.51957,0.10536 -0.70711,0.29289 C 139.10536,-179.51957 139,-179.26522 139,-179 v 12 c 0,0.2652 0.10536,0.5196 0.29289,0.7071 0.18754,0.1875 0.44189,0.2929 0.70711,0.2929 h 12 c 0.2652,0 0.5196,-0.1054 0.7071,-0.2929 C 152.8946,-166.4804 153,-166.7348 153,-167 v -12 c 0,-0.26522 -0.1054,-0.51957 -0.2929,-0.70711 C 152.5196,-179.89464 152.2652,-180 152,-180 Z"
         inkscape:connector-curvature="0"
         style="fill:#000000;fill-opacity:0.1" /><rect
         y="-181"
         x="138"
         height="16"
         width="16"
         id="rect877-4-4"
         style="opacity:1;fill:none;fill-opacity:0.467043;stroke:none;stroke-width:50;stroke-linecap:round;stroke-linejoin:round;stroke-miterlimit:4;stroke-dasharray:none;stroke-opacity:1;paint-order:stroke fill markers" /><circle
         r="3"
         cy="-173"
         cx="146"
         id="path3021"
         style="opacity:0.5;fill:#000000;fill-opacity:1;stroke:none;stroke-width:50;stroke-linecap:round;stroke-linejoin:round;stroke-miterlimit:4;stroke-dasharray:none;stroke-opacity:1;paint-order:stroke fill markers" /></g><g
       id="Event-Dark32"
       inkscape:label="Event-Dark"
       transform="matrix(0.26458333,0,0,0.26458333,-49.212499,60.589583)"><rect
         y="-181"
         x="202"
         height="16"
         width="16"
         id="rect877-4-4-1-2"
         style="opacity:1;fill:none;fill-opacity:0.7;stroke:none;stroke-width:50;stroke-linecap:round;stroke-linejoin:round;stroke-miterlimit:4;stroke-dasharray:none;stroke-opacity:1;paint-order:stroke fill markers" /><path
         id="path2154-4"
         d="m 216,-180 h -12 c -0.55228,0 -1,0.44772 -1,1 v 12 c 0,0.5523 0.44772,1 1,1 h 12 c 0.5523,0 1,-0.4477 1,-1 v -12 c 0,-0.55228 -0.4477,-1 -1,-1 z"
         inkscape:connector-curvature="0"
         style="fill:#73c5ff;fill-opacity:1" /><circle
         r="3"
         cy="-173"
         cx="210"
         id="path3021-3"
         style="opacity:0.5;fill:#000000;fill-opacity:1;stroke:none;stroke-width:50;stroke-linecap:round;stroke-linejoin:round;stroke-miterlimit:4;stroke-dasharray:none;stroke-opacity:1;paint-order:stroke fill markers" /></g><g
       transform="matrix(0.26458333,0,0,0.26458333,-49.2125,52.122916)"
       id="Event-Stop-Dark32"
       inkscape:label="Event-Stop-Dark"
       style="display:inline"><rect
         y="-133"
         x="202"
         height="16"
         width="16"
         id="rect877-4-4-1-3-7"
         style="opacity:1;fill:none;fill-opacity:0.7;stroke:none;stroke-width:50;stroke-linecap:round;stroke-linejoin:round;stroke-miterlimit:4;stroke-dasharray:none;stroke-opacity:1;paint-order:stroke fill markers" /><path
         id="path2154-0"
         d="m 216,-132 h -12 c -0.55228,0 -1,0.44772 -1,1 v 12 c 0,0.5523 0.44772,1 1,1 h 12 c 0.5523,0 1,-0.4477 1,-1 v -12 c 0,-0.55228 -0.4477,-1 -1,-1 z"
         inkscape:connector-curvature="0"
         style="fill:#73c5ff;fill-opacity:1" /><path
         id="path2156-4"
         d="m 213,-128 h -6 v 6 h 6 z"
         inkscape:connector-curvature="0"
         style="opacity:0.5;fill:#000000" /></g><g
       id="Event-Stop-Light32"
       inkscape:label="Event-Stop-Light"
       transform="matrix(0.26458333,0,0,0.26458333,-44.979167,64.822916)"><rect
         y="-181"
         x="170"
         height="16"
         width="16"
         id="rect877-4-4-1-5-1"
         style="opacity:1;fill:none;fill-opacity:0.7;stroke:none;stroke-width:50;stroke-linecap:round;stroke-linejoin:round;stroke-miterlimit:4;stroke-dasharray:none;stroke-opacity:1;paint-order:stroke fill markers" /><path
         id="path2170-8"
         d="m 184,-180 h -12 c -0.55228,0 -1,0.44772 -1,1 v 12 c 0,0.5523 0.44772,1 1,1 h 12 c 0.5523,0 1,-0.4477 1,-1 v -12 c 0,-0.55228 -0.4477,-1 -1,-1 z"
         inkscape:connector-curvature="0"
         style="fill:#178fe6;fill-opacity:1" /><path
         id="path2172-8"
         d="m 181,-176 h -6 v 6 h 6 z"
         inkscape:connector-curvature="0"
         style="opacity:0.5;fill:#000000" /><path
         id="path2174-2"
         d="m 184,-179 v 12 h -12 v -12 z m 0,-1 h -12 c -0.26522,0 -0.51957,0.10536 -0.70711,0.29289 C 171.10536,-179.51957 171,-179.26522 171,-179 v 12 c 0,0.2652 0.10536,0.5196 0.29289,0.7071 0.18754,0.1875 0.44189,0.2929 0.70711,0.2929 h 12 c 0.2652,0 0.5196,-0.1054 0.7071,-0.2929 C 184.8946,-166.4804 185,-166.7348 185,-167 v -12 c 0,-0.26522 -0.1054,-0.51957 -0.2929,-0.70711 C 184.5196,-179.89464 184.2652,-180 184,-180 Z"
         inkscape:connector-curvature="0"
         style="fill:#000000;fill-opacity:0.1" /></g></g></svg>
